<svg width="21" height="22" viewBox="0 0 21 22" fill="none" xmlns="http://www.w3.org/2000/svg">
<path d="M16.0312 2.75H11.625V6.5H18.1875L16.7344 3.21875C16.5938 2.9375 16.3125 2.75 16.0312 2.75ZM18.75 8.75H2.25V18.5C2.25 18.9219 2.57812 19.25 3 19.25H18C18.375 19.25 18.75 18.9219 18.75 18.5V8.75ZM2.76562 6.5H9.375V2.75H4.92188C4.64062 2.75 4.35938 2.9375 4.26562 3.21875L2.76562 6.5ZM16.0312 0.5C17.2031 0.5 18.2812 1.20312 18.75 2.28125L20.7188 6.6875C20.9062 7.0625 21 7.48438 21 7.90625V18.5C21 20.1875 19.6406 21.5 18 21.5H3C1.3125 21.5 0 20.1875 0 18.5V7.90625C0 7.48438 0.046875 7.0625 0.234375 6.6875L2.20312 2.28125C2.67188 1.20312 3.75 0.5 4.92188 0.5H16.0312Z" fill="#272A2F"></path>
</svg>