<svg width="27" height="24" viewBox="0 0 27 24" fill="none" xmlns="http://www.w3.org/2000/svg">
<path d="M18 2.25H15.375V5.25C15.375 5.67188 15 6 14.625 6H12.375C11.9531 6 11.625 5.67188 11.625 5.25V2.25H9C8.57812 2.25 8.25 2.625 8.25 3V9H6V3C6 1.35938 7.3125 0 9 0H18C19.6406 0 21 1.35938 21 3V9H18.75V3C18.75 2.625 18.375 2.25 18 2.25ZM15.3281 24C15.8906 23.3906 16.2656 22.6406 16.4062 21.75H24C24.375 21.75 24.75 21.4219 24.75 21V13.5C24.75 13.125 24.375 12.75 24 12.75H21.375V15.75C21.375 16.1719 21 16.5 20.625 16.5H18.375C17.9531 16.5 17.625 16.1719 17.625 15.75V12.75H16.4062C16.2656 11.9062 15.8906 11.1562 15.3281 10.5H24C25.6406 10.5 27 11.8594 27 13.5V21C27 22.6875 25.6406 24 24 24H15.3281ZM12 12.75H9.375V15.75C9.375 16.1719 9 16.5 8.625 16.5H6.375C5.95312 16.5 5.625 16.1719 5.625 15.75V12.75H3C2.57812 12.75 2.25 13.125 2.25 13.5V21C2.25 21.4219 2.57812 21.75 3 21.75H12C12.375 21.75 12.75 21.4219 12.75 21V13.5C12.75 13.125 12.375 12.75 12 12.75ZM3 10.5H12C13.6406 10.5 15 11.8594 15 13.5V21C15 22.6875 13.6406 24 12 24H3C1.3125 24 0 22.6875 0 21V13.5C0 11.8594 1.3125 10.5 3 10.5Z" fill="#272A2F"></path>
</svg>