<svg xmlns="http://www.w3.org/2000/svg" width="1395" height="690" viewBox="0 0 1395 690" fill="none"><rect width="1394" height="688" fill="#DFE1E3"></rect><ellipse cx="972.374" cy="637.161" rx="266.744" ry="40.6991" transform="rotate(0.744379 972.374 637.161)" fill="#FAFAFA"></ellipse><path d="M777.551 455.472L740.189 467.926C814.498 466.681 969.343 467.926 969.343 467.926C969.343 467.926 985.533 463.36 995.496 455.472H777.551Z" fill="#757575"></path><rect x="738.945" y="472.26" width="237.049" height="158.548" fill="#F5DFE1"></rect><path d="M973.551 467.146L997.989 449.245V605.236L975.995 629.529L973.551 467.146Z" fill="#F5DFE1"></path><rect x="746.323" y="472.194" width="219.848" height="166.352" stroke="#D71920" stroke-width="4.9816" stroke-linejoin="round"></rect><path d="M740.19 469.172H968.098L955.644 536.423H724L740.19 469.172Z" fill="#D71920"></path><path d="M971.833 629.828L988.024 609.902V451.736H788.76" stroke="#9A1419" stroke-width="4.9816" stroke-linecap="round"></path><path d="M965.607 471.663L990.515 448L1002.97 506.534L980.552 531.442L965.607 471.663Z" fill="#9A1419"></path><path d="M814.499 448C814.499 448 777.999 245.5 920.535 150.938C1063.07 56.3767 1158.53 112.438 1158.53 112.438" stroke="#A0A6AC" stroke-width="4" stroke-dasharray="8 8"></path><path d="M0 683C201.032 683 364 532.568 364 347C364 161.432 201.032 11 0 11V683Z" fill="#616A75"></path><circle cx="1132.21" cy="124.553" r="82.7907" fill="white"></circle><circle cx="1119.79" cy="113.791" r="81.2907" stroke="black" stroke-width="3"></circle><path d="M1060.18 144.009H1181.47" stroke="black" stroke-width="3" stroke-linecap="round" stroke-linejoin="round" stroke-dasharray="4.97 4.97"></path><path d="M1103.23 79.8469C1100.75 81.7576 1105.72 73.2236 1097.85 72.8096C1089.99 72.3956 1090.81 80.7385 1089.99 79.8469C1084.6 74.0516 1079.22 79.8482 1079.22 83.5727C1079.22 87.2973 1089.16 88.1255 1094.54 87.298C1099.92 86.4704 1112.34 88.1252 1115.24 84.8139C1118.13 81.5026 1113.17 72.2042 1103.23 79.8469Z" fill="#E52E34"></path><path d="M1170.21 78.3531C1168.59 79.7429 1171.83 73.5353 1166.7 73.2342C1161.58 72.9331 1162.12 79.0017 1161.58 78.3531C1158.07 74.1377 1154.56 78.3541 1154.56 81.0633C1154.56 83.7724 1161.04 84.3749 1164.55 83.7729C1168.05 83.171 1176.15 84.3746 1178.04 81.966C1179.93 79.5575 1176.69 72.7939 1170.21 78.3531Z" fill="#E52E34"></path><path d="M1155.39 93.093H1108.17C1106.74 93.093 1105.47 94.0132 1105.02 95.374L1099.94 110.882C1099.53 112.144 1098.4 113.037 1097.08 113.151L1083.08 114.358C1081.37 114.505 1080.05 115.938 1080.05 117.657L1080.05 130.349C1080.05 132.178 1081.53 133.66 1083.36 133.66H1155.39C1157.22 133.66 1158.7 132.178 1158.7 130.349V96.4046C1158.7 94.5757 1157.22 93.093 1155.39 93.093Z" fill="#ECA4A7"></path><path d="M1129.31 94.7488C1129.31 99.3023 1129.17 123.726 1129.31 133.246" stroke="black" stroke-width="3" stroke-linecap="round" stroke-linejoin="round"></path><path d="M1121.03 99.3022H1117.12C1115.55 99.3022 1114.19 100.416 1113.88 101.964L1112.3 109.83C1111.89 111.879 1113.46 113.791 1115.55 113.791H1121.03C1122.86 113.791 1124.34 112.308 1124.34 110.479V102.614C1124.34 100.785 1122.86 99.3022 1121.03 99.3022Z" stroke="black" stroke-width="3" stroke-linecap="round" stroke-linejoin="round"></path><path d="M1159.53 93.9209H1112.31C1110.87 93.9209 1109.6 94.8411 1109.16 96.2018L1104.08 111.71C1103.67 112.972 1102.54 113.865 1101.22 113.979L1087.22 115.186C1085.5 115.333 1084.19 116.766 1084.19 118.485L1084.19 131.451C1084.19 133.129 1085.55 134.488 1087.23 134.488C1088.96 134.488 1090.37 133.022 1090.85 131.361C1091.69 128.466 1094.06 124.497 1100.75 123.726C1108.28 122.856 1111.76 128.478 1113.17 131.929C1113.76 133.383 1115.12 134.488 1116.69 134.488H1131.38C1134.35 134.488 1133.86 124.553 1144.21 124.139C1151.24 123.858 1154.45 128.736 1155.79 131.893C1156.41 133.355 1157.78 134.488 1159.37 134.488H1159.53C1161.36 134.488 1162.84 133.006 1162.84 131.177V97.2325C1162.84 95.4036 1161.36 93.9209 1159.53 93.9209Z" stroke="black" stroke-width="3" stroke-linejoin="round"></path><circle cx="1144.63" cy="136.972" r="8.43488" fill="white" stroke="black" stroke-width="3"></circle><circle cx="1101.58" cy="136.972" r="8.43488" fill="white" stroke="black" stroke-width="3"></circle><rect x="936.678" y="369.808" width="53.8265" height="91.9536" rx="3.05249" transform="rotate(-26.251 936.678 369.808)" fill="black"></rect><rect x="942.684" y="371.847" width="44.8554" height="82.9826" rx="4.57874" transform="rotate(-26.251 942.684 371.847)" fill="#FAFAFA"></rect><rect x="958.121" y="368.732" width="13.7362" height="1.52625" rx="0.763124" transform="rotate(-26.5322 958.121 368.732)" fill="black"></rect><rect x="960" y="393.855" width="33.5774" height="9.15748" rx="1.52625" transform="rotate(-26.2581 960 393.855)" fill="#D9D9D9"></rect><path d="M996 412.624L1007 407.077" stroke="#272A2F" stroke-width="2" stroke-linecap="round"></path><path d="M997.999 417.638L1009.5 412.077" stroke="#272A2F" stroke-width="2" stroke-linecap="round"></path><path d="M986.974 411.76C987.308 411.593 987.713 411.731 987.876 412.066L993.607 423.86L993.314 424.007C992.816 424.256 992.21 424.051 991.967 423.55L986.672 412.651C986.512 412.321 986.646 411.924 986.974 411.76V411.76ZM993.607 423.86L994.322 425.289C994.487 425.617 994.354 426.017 994.025 426.182V426.182C993.696 426.346 993.297 426.213 993.132 425.885L992.865 425.35C992.617 424.856 992.817 424.256 993.311 424.008L993.607 423.86ZM993.56 420.833C993.413 420.541 993.224 420.318 992.991 420.164C992.761 420.003 992.464 419.902 992.101 419.864C991.736 419.82 991.283 419.836 990.744 419.911C989.967 420.017 989.259 420.053 988.62 420.02C987.984 419.98 987.424 419.82 986.94 419.54C986.459 419.252 986.06 418.793 985.745 418.164C985.435 417.545 985.312 416.936 985.376 416.338C985.444 415.737 985.679 415.182 986.079 414.673C986.479 414.164 987.029 413.735 987.729 413.384C988.268 413.114 988.792 412.95 989.3 412.89C989.814 412.828 990.299 412.871 990.756 413.02C991.213 413.169 991.633 413.425 992.016 413.787C992.186 413.945 992.347 414.123 992.498 414.322C992.831 414.762 992.62 415.373 992.126 415.621L992.026 415.671C991.545 415.912 990.979 415.694 990.607 415.305V415.305C990.405 415.085 990.188 414.923 989.955 414.819C989.719 414.711 989.473 414.661 989.218 414.669C988.968 414.674 988.713 414.742 988.454 414.872C988.086 415.056 987.817 415.276 987.646 415.531C987.473 415.782 987.388 416.051 987.39 416.34C987.397 416.626 987.475 416.917 987.623 417.214C987.767 417.501 987.95 417.724 988.173 417.884C988.395 418.043 988.688 418.142 989.051 418.181C989.416 418.212 989.887 418.193 990.463 418.125C991.247 418.022 991.955 417.992 992.586 418.035C993.22 418.07 993.773 418.23 994.247 418.516C994.723 418.793 995.119 419.247 995.434 419.876C995.759 420.525 995.88 421.154 995.795 421.763C995.716 422.369 995.459 422.93 995.023 423.444C994.589 423.951 994.007 424.387 993.276 424.753C992.814 424.984 992.326 425.156 991.812 425.269C991.301 425.374 990.793 425.382 990.289 425.295C989.785 425.207 989.311 424.994 988.869 424.655C988.643 424.48 988.431 424.264 988.235 424.008C987.899 423.57 988.111 422.957 988.605 422.71L988.699 422.663C989.192 422.416 989.765 422.647 990.159 423.034C990.189 423.062 990.218 423.09 990.248 423.115C990.488 423.322 990.739 423.455 991.001 423.512C991.263 423.57 991.525 423.574 991.786 423.526C992.052 423.474 992.301 423.39 992.535 423.273C992.923 423.079 993.219 422.852 993.42 422.594C993.624 422.328 993.735 422.045 993.754 421.746C993.776 421.44 993.711 421.135 993.56 420.833Z" fill="#272A2F"></path><path d="M975.553 369.364C974.859 368.384 973.841 367.737 972.612 367.492C971.454 367.26 970.136 367.391 968.799 367.866C965.888 368.965 963.479 371.18 961.923 374.189C961.234 375.576 960.844 377.016 960.8 378.352C960.751 379.773 961.093 381.041 961.789 382.021C962.816 383.471 964.503 384.164 966.535 383.974C968.544 383.787 970.659 382.755 972.489 381.073C973.664 380.006 974.653 378.696 975.42 377.194C976.11 375.808 976.496 374.366 976.541 373.031C976.578 372.265 976.473 371.477 976.232 370.719C976.073 370.233 975.843 369.774 975.553 369.364M968.351 382.069C968.045 382.052 967.902 381.833 967.975 381.267L968.356 378.389L971.674 377.337L972.485 378.821C972.552 378.951 972.59 379.095 972.594 379.239C972.598 379.382 972.569 379.519 972.509 379.634C972.444 379.696 972.38 379.757 972.315 379.818C971.061 380.97 969.679 381.725 968.351 382.069ZM968.533 377.316L969.161 372.879L971.188 376.475L968.533 377.316ZM974.541 376.996C974.253 377.299 974.027 376.922 974.027 376.922L970.403 370.706C970.403 370.706 969.819 369.601 968.983 369.866L968.756 369.938L968.386 372.783L967.043 381.423C966.952 381.989 966.731 382.215 966.448 382.272C965.131 382.197 963.984 381.639 963.232 380.58C961.431 378.042 962.578 373.588 965.792 370.63C969.007 367.671 973.074 367.328 974.873 369.867C976.161 371.68 975.944 374.472 974.541 376.997" fill="#DF474D"></path><rect x="965" y="404.855" width="33.5774" height="9.15748" rx="1.52625" transform="rotate(-26.2581 965 404.855)" fill="#D9D9D9"></rect><path d="M1268.14 533.778C1273.63 533.184 1239.14 379.428 1236.01 366.536L1273.37 360.21C1273.37 360.21 1330.43 574.173 1303.72 588.209C1277.01 602.244 1138.38 497.902 1116.56 505.757C1094.74 513.613 1109.79 511.858 1119.59 495C1129.39 478.142 1110.34 472.884 1110.34 472.884C1110.34 472.884 1112.83 465.255 1119.59 457.615C1126.34 449.975 1124.69 475.085 1124.69 475.085C1124.69 475.085 1124.72 480.085 1123.26 485.594C1121.79 491.102 1262.64 534.372 1268.14 533.778Z" fill="#FFD5AC"></path><path d="M1236.37 364.629C1223.72 386.313 1185.4 456.532 1182.36 461.037L1249.92 497.877C1249.92 497.877 1314.57 394.27 1281.03 365.334C1247.49 336.399 1236.37 364.629 1236.37 364.629Z" fill="#C7181E" stroke="black" stroke-width="3.05249"></path><rect x="1132.9" y="630.335" width="147.849" height="59.1396" fill="#331E1E"></rect><path d="M1160.73 246.595C1160.73 242.287 1179.11 231.517 1181.23 225.055L1183.34 258.083C1179.81 258.322 1160.73 256.626 1160.73 246.595Z" fill="#E9AA70"></path><path d="M1270.05 249.518C1270.05 273.763 1252.92 302.458 1252.92 331.158C1241.17 345.754 1216.65 346.054 1203.95 346.054C1192.41 346.054 1224.9 311.336 1216.13 302.569C1184.82 312.136 1171.77 279.751 1171.77 253.866C1171.77 211.598 1186.35 172.984 1216.13 172.984C1245.91 172.984 1270.05 207.249 1270.05 249.518Z" fill="#FCCD9E"></path><path d="M1175.2 274.1C1179.56 274.1 1182.83 271.81 1187.41 261.89" stroke="black" stroke-width="3.05249" stroke-linecap="round"></path><path d="M1212.69 214.631C1198.58 215.068 1171.21 209.905 1152.64 186.03C1163.08 188.638 1177.34 190.03 1175.25 188.638C1172.64 186.899 1133.51 169.505 1145.68 170.374C1155.42 171.07 1197.86 159.939 1221.35 152.98C1252.65 147.763 1275.09 164.808 1277.88 170.374C1280.96 176.55 1293.26 186.837 1286.26 195.761C1291.15 201.773 1299.55 230.416 1265.7 284.306C1260.78 292.133 1244.83 280.827 1232.65 287.784L1212.65 263.433C1216.71 256.475 1226.56 250.815 1226.56 235.602C1226.56 225.165 1215.26 233.862 1212.65 235.602C1210.63 236.945 1212.25 222.214 1212.69 214.631Z" fill="black"></path><ellipse cx="1176.03" cy="222.207" rx="1.24425" ry="4.46009" transform="rotate(7.02142 1176.03 222.207)" fill="black"></ellipse><path d="M1249.56 333.35C1263.22 326.949 1276.52 348.028 1276.52 348.028C1280.48 366.172 1277.1 389.092 1278.97 410.918L1285.18 485.094L1289.97 653.201C1242.53 644.346 1128.72 652.874 1121.38 656.668C1121.22 657.166 1121.1 657.319 1121.01 657.089C1120.97 656.957 1121.09 656.816 1121.38 656.668C1124.25 647.607 1139.09 524.157 1149.75 501.42C1163.37 472.382 1137.35 379.868 1192.53 331.432C1197.12 327.405 1235.89 339.751 1249.56 333.35Z" fill="#E62E34"></path><path d="M1063.36 560.438C1068.09 563.288 1133.6 419.973 1138.91 407.813L1172.48 425.365C1172.48 425.365 1088.54 630.279 1058.78 625.303C1029.02 620.328 981.708 453.398 959.578 446.458C937.447 439.518 933.976 369.092 942.5 386.193C951.024 403.294 968.5 438.193 968.5 438.193C968.5 438.193 973.881 431.637 983 421.193C992.119 410.75 986.281 429.693 986.281 429.693C986.281 429.693 984.841 435.943 982 440.693C979.158 445.443 1058.62 557.588 1063.36 560.438Z" fill="#FFD5AC"></path><path d="M968.636 429.044C968.636 429.044 969.438 432.62 978.556 422.176C987.675 411.733 982.372 429.044 982.372 429.044C982.372 429.044 981.398 435.746 978.556 440.496C975.715 445.246 1050.9 554.399 1055.63 557.249C1060.37 560.099 1125.88 416.784 1131.18 404.624L1164.76 422.176C1164.76 422.176 1080.81 627.09 1051.05 622.115C1021.29 617.139 977.03 447.436 954.899 440.496C932.769 433.556 927.298 364.63 935.822 381.731" stroke="black" stroke-width="4" stroke-linecap="round"></path><path d="M1136.75 373.953C1124.09 395.638 1085.77 465.856 1082.73 470.361L1150.29 507.202C1150.29 507.202 1214.94 403.594 1181.4 374.659C1147.86 345.724 1136.75 373.953 1136.75 373.953Z" fill="#E52E34"></path><path d="M1130.64 373.204C1117.98 394.889 1079.66 465.107 1076.63 469.612L1144.19 506.453C1144.19 506.453 1208.83 402.845 1175.3 373.91C1141.76 344.975 1130.64 373.204 1130.64 373.204Z" stroke="black" stroke-width="4"></path><path d="M1224.03 294.704C1223.42 297.146 1220.98 321.413 1207.25 331.334" stroke="black" stroke-width="3.05249" stroke-linecap="round" stroke-linejoin="round"></path><path d="M1262.95 281.731C1259.9 284.783 1253.8 301.572 1252.27 322.177" stroke="black" stroke-width="3.05249" stroke-linecap="round" stroke-linejoin="round"></path><circle cx="879.081" cy="243.583" r="74.8521" fill="white"></circle><circle cx="867.852" cy="233.852" r="73.3521" stroke="black" stroke-width="3"></circle><ellipse cx="870.18" cy="268.525" rx="57.18" ry="6.5245" fill="#D9D9D9"></ellipse><path d="M892.402 211.48C880.129 184.614 848.464 192.355 843.187 218.813C837.91 245.272 866.248 270.438 866.248 270.438C866.248 270.438 904.675 238.346 892.402 211.48Z" fill="#D71920"></path><circle cx="869.852" cy="222.946" r="13.4009" fill="#D9D9D9"></circle><path d="M888.413 208.486C876.141 181.62 844.475 189.361 839.198 215.819C833.921 242.278 862.259 267.444 862.259 267.444C862.259 267.444 900.686 235.352 888.413 208.486Z" stroke="black" stroke-width="3"></path><circle cx="865.864" cy="219.952" r="11.9009" stroke="black" stroke-width="3"></circle><path d="M990.325 626.979C992.725 619.379 1015.66 619.479 1026.83 620.479C1049.63 619.498 1055.99 632.404 1056.33 638.979H1062.33L1063.83 632.979H1084.83C1085.49 635.646 1086.83 641.279 1086.83 642.479C1086.83 643.679 1085.49 645.979 1084.83 646.979L1068.83 645.479C1068.49 646.979 1068.03 650.679 1068.83 653.479C1069.63 656.279 1053.49 656.979 1045.33 656.979C1041.66 658.479 1031.03 661.579 1017.83 661.979C1004.63 662.379 993.992 654.146 990.325 649.979C989.325 645.479 987.925 634.579 990.325 626.979Z" fill="white"></path><ellipse cx="1019.91" cy="633.987" rx="27.3988" ry="6.84969" fill="#1D2023"></ellipse><path d="M1055.87 641.686C1055.87 632.228 1048.04 622 1022.42 622C1007.28 622 989.083 624.53 989.083 633.987C989.083 637.842 988.272 649.113 991.711 651.975C996.71 656.134 1002.78 661.386 1022.42 663.098C1032.17 663.098 1044.16 661.049 1049.02 656.248" stroke="#1D2023" stroke-width="3.42485"></path><path d="M1038.74 640.837C1040.45 640.837 1047.3 644.262 1062.72 640.837V633.987H1086.69C1087.83 637.983 1088.06 646.317 1086.69 647.686C1084.98 649.399 1071.28 647.686 1069.57 647.686C1068.2 647.686 1071.28 654.536 1069.57 654.536C1069.57 654.536 1062.72 661.386 1047.3 657.961" stroke="#1D2023" stroke-width="3.42485" stroke-linecap="round" stroke-linejoin="round"></path><path d="M1002.78 627.137C1007.92 626.281 1016.48 625.425 1016.48 625.425L1002.78 624.569L1009.63 623.712" stroke="#3A4046" stroke-width="3.42485" stroke-linecap="round" stroke-linejoin="round"></path><path d="M1047.3 647.686V656.248" stroke="#3A4046" stroke-width="3.42485" stroke-linecap="round" stroke-linejoin="round"></path></svg>