<svg xmlns="http://www.w3.org/2000/svg" width="1366" height="672" viewBox="0 0 1366 672" fill="none"><g clip-path="url(#clip0_2922_1439)"><rect width="1366" height="672" fill="#DFE1E3"></rect><circle cx="169.5" cy="84.5" r="70.5" fill="#EFA3A6"></circle><path d="M932.711 655.696C928.442 668.977 967.809 677.514 967.809 677.514L974.924 700.755L983.461 677.514C996.267 676.724 1026.15 688.898 1026.15 677.514C1026.15 666.131 980.615 657.593 983.461 650.953C985.152 647.007 1032.79 662.336 1032.79 639.57C1032.79 616.803 994.086 623.254 987.256 618.7C980.426 614.147 1038.01 621.072 1038.01 600.202C1038.01 579.333 996.742 597.357 996.742 597.357C993.896 587.87 1040.85 587.396 1038.01 566.052C1035.16 544.709 991.999 573.167 987.256 573.167C983.461 573.167 1014.77 553.246 1001.48 538.543C988.204 523.839 978.339 559.222 974.924 566.052C971.509 572.882 964.963 531.902 953.58 543.286C953.58 543.286 946.465 550.4 950.734 558.464C955.003 566.527 963.54 578.859 963.54 578.859C963.54 578.859 940.299 560.835 932.711 577.91C925.122 594.985 963.54 607.317 963.54 607.317C963.54 607.317 918.639 595.934 918.007 613.957C917.375 631.981 959.936 639.475 958.797 646.684C957.659 653.894 936.979 642.416 932.711 655.696Z" fill="white"></path><path d="M75.7105 672.696C71.4418 685.977 110.809 694.514 110.809 694.514L117.924 717.755L126.461 694.514C139.267 693.724 169.149 705.898 169.149 694.514C169.149 683.131 123.615 674.593 126.461 667.953C128.152 664.007 175.789 679.336 175.789 656.57C175.789 633.803 137.086 640.254 130.256 635.7C123.426 631.147 181.006 638.072 181.006 617.202C181.006 596.333 139.742 614.357 139.742 614.357C136.896 604.87 183.852 604.396 181.006 583.052C178.161 561.709 134.999 590.167 130.256 590.167C126.461 590.167 157.765 570.246 144.485 555.543C131.204 540.839 121.339 576.222 117.924 583.052C114.509 589.882 107.963 548.902 96.58 560.286C96.58 560.286 89.4653 567.4 93.7341 575.464C98.003 583.527 106.54 595.859 106.54 595.859C106.54 595.859 83.2994 577.835 75.7105 594.91C68.1216 611.985 106.54 624.317 106.54 624.317C106.54 624.317 61.6394 612.934 61.007 630.957C60.3745 648.981 102.936 656.475 101.797 663.684C100.659 670.894 79.9792 659.416 75.7105 672.696Z" fill="white"></path><rect x="828.623" y="474.394" width="8.22268" height="14.2526" stroke="black" stroke-width="1.64454" stroke-linejoin="round"></rect><rect x="828.623" y="500.158" width="8.22268" height="14.8008" stroke="black" stroke-width="1.64454" stroke-linejoin="round"></rect><rect x="828.623" y="576.039" width="8.22268" height="14.8008" stroke="black" stroke-width="1.64454" stroke-linejoin="round"></rect><rect x="828.623" y="526.471" width="8.22268" height="14.2526" stroke="black" stroke-width="1.64454" stroke-linejoin="round"></rect><rect x="828.623" y="602.352" width="8.22268" height="14.2526" stroke="black" stroke-width="1.64454" stroke-linejoin="round"></rect><rect x="828.623" y="552.235" width="8.22268" height="14.8008" stroke="black" stroke-width="1.64454" stroke-linejoin="round"></rect><rect x="828.623" y="628.116" width="8.22268" height="14.8008" stroke="black" stroke-width="1.64454" stroke-linejoin="round"></rect><rect x="845.617" y="474.394" width="8.22268" height="14.2526" stroke="black" stroke-width="1.64454" stroke-linejoin="round"></rect><rect x="845.617" y="500.158" width="8.22268" height="14.8008" stroke="black" stroke-width="1.64454" stroke-linejoin="round"></rect><rect x="845.617" y="576.039" width="8.22268" height="14.8008" stroke="black" stroke-width="1.64454" stroke-linejoin="round"></rect><rect x="845.617" y="526.471" width="8.22268" height="14.2526" stroke="black" stroke-width="1.64454" stroke-linejoin="round"></rect><rect x="845.617" y="602.352" width="8.22268" height="14.2526" stroke="black" stroke-width="1.64454" stroke-linejoin="round"></rect><rect x="845.617" y="552.235" width="8.22268" height="14.8008" stroke="black" stroke-width="1.64454" stroke-linejoin="round"></rect><rect x="845.617" y="628.116" width="8.22268" height="14.8008" stroke="black" stroke-width="1.64454" stroke-linejoin="round"></rect><path d="M869.463 662.963V455.482H816.838V660.117" stroke="#D71920" stroke-width="1.64454" stroke-linecap="round" stroke-linejoin="round"></path><rect x="813.822" y="450.822" width="58.6551" height="3.83725" rx="0.822268" stroke="#D71920" stroke-width="1.64454" stroke-linejoin="round"></rect><rect x="816.838" y="457.675" width="52.6252" height="3.83725" fill="#D71920"></rect><path d="M909.395 667.232V629.894V615.732C909.395 615.732 921.961 631.504 933.668 611.225C945.375 590.947 922.022 583.222 922.022 583.222C922.022 583.222 916.103 579.199 920.312 588.211C924.522 597.224 942.219 581.601 939.598 570.738C936.976 559.874 927.942 555.95 922.022 555.789C916.103 555.628 915.182 560.778 922.022 560.939C928.863 561.1 930.046 552.57 925.179 546.616C920.312 540.661 910.184 530.434 907.948 534.941C905.712 539.447 907.948 546.528 912.026 543.47C916.103 540.412 926.1 532.687 912.026 526.089C897.951 519.491 896.767 543.47 896.767 543.47C896.767 543.47 896.767 549.425 901.897 543.47C907.027 537.516 901.239 536.067 893.084 539.769C884.929 543.47 878.352 543.309 878.352 556.828C878.352 570.347 888.6 570.738 888.6 570.738C888.6 570.738 892.414 574.439 892.283 564.622C892.151 554.805 883.206 563.174 882.68 572.347C882.154 581.521 888.125 593.104 894.53 593.536C900.935 593.969 902.862 591.953 894.53 588.211C886.198 584.469 876.905 597.385 878.352 604.305C879.799 611.225 887.296 606.236 890.979 608.811C894.662 611.386 896.899 606.88 890.979 604.305C885.06 601.73 884.008 613.478 890.979 620.238C897.951 626.997 904.791 615.732 904.791 615.732V667.232" stroke="#D71920" stroke-width="1.89722" stroke-linecap="round" stroke-linejoin="round"></path><path fill-rule="evenodd" clip-rule="evenodd" d="M880.208 613.723C880.126 613.337 880.082 612.934 880.082 612.519C880.082 609.73 882.045 607.469 884.466 607.469C886.888 607.469 888.851 609.73 888.851 612.519C888.851 613.046 888.78 613.555 888.65 614.033C888.706 614.031 888.762 614.03 888.818 614.03C891.24 614.03 893.202 616.29 893.202 619.079C893.202 619.967 893.004 620.801 892.654 621.526C896.813 622.114 900.02 625.838 900.02 630.344C900.02 633.806 898.127 636.807 895.364 638.278C896.512 639.453 897.235 641.165 897.235 643.073C897.235 646.614 894.742 649.486 891.667 649.486C890.361 649.486 889.161 648.968 888.211 648.102C887.854 648.4 887.475 648.666 887.078 648.898V668.961L885.12 667.567V649.702C884.539 649.85 883.934 649.928 883.314 649.928C879.53 649.928 876.334 647.03 875.307 643.056C875.204 643.067 875.1 643.073 874.994 643.073C873.103 643.073 871.57 641.307 871.57 639.129C871.57 638.828 871.599 638.536 871.654 638.254C866.646 635.294 864.513 629.6 866.891 625.476C868.282 623.062 870.913 621.716 873.873 621.586C873.253 619.893 873.305 618.098 874.175 616.588C875.339 614.57 877.674 613.562 880.208 613.723Z" fill="#D71920"></path><path d="M91.5449 475.786H38.9198V675.323H64.136H91.5449V475.786Z" fill="#E52E34"></path><rect width="56.4624" height="5.48179" transform="matrix(-1 0 0 1 93.7383 472.497)" fill="#E52E34"></rect><rect width="52.6252" height="3.83725" transform="matrix(-1 0 0 1 91.5449 477.979)" fill="#779093"></rect><rect width="9.86722" height="15.8972" transform="matrix(-1 0 0 1 78.9375 489.49)" fill="white"></rect><rect width="9.86722" height="16.4454" transform="matrix(-1 0 0 1 78.9375 515.255)" fill="white"></rect><rect width="9.86722" height="15.8972" transform="matrix(-1 0 0 1 78.9375 541.567)" fill="white"></rect><rect width="9.86722" height="16.4454" transform="matrix(-1 0 0 1 78.9375 567.332)" fill="white"></rect><rect width="9.86722" height="16.4454" transform="matrix(-1 0 0 1 78.9375 592)" fill="white"></rect><rect width="9.86722" height="16.4454" transform="matrix(-1 0 0 1 78.9375 616.668)" fill="white"></rect><rect width="9.86722" height="16.4454" transform="matrix(-1 0 0 1 78.9375 641.336)" fill="white"></rect><rect width="9.86722" height="15.8972" transform="matrix(-1 0 0 1 61.9434 489.49)" fill="white"></rect><rect width="9.86722" height="16.4454" transform="matrix(-1 0 0 1 61.9434 515.255)" fill="white"></rect><rect width="9.86722" height="15.8972" transform="matrix(-1 0 0 1 61.9434 541.567)" fill="white"></rect><rect width="9.86722" height="16.4454" transform="matrix(-1 0 0 1 61.9434 567.332)" fill="white"></rect><rect width="9.86722" height="16.4454" transform="matrix(-1 0 0 1 61.9434 592)" fill="white"></rect><rect width="9.86722" height="16.4454" transform="matrix(-1 0 0 1 61.9434 616.668)" fill="white"></rect><rect width="9.86722" height="16.4454" transform="matrix(-1 0 0 1 61.9434 641.336)" fill="white"></rect><path d="M89.3535 464.822V471.949" stroke="black" stroke-width="1.64454" stroke-linecap="round" stroke-linejoin="round"></path><path d="M84.1465 464.822V471.949" stroke="black" stroke-width="1.64454" stroke-linecap="round" stroke-linejoin="round"></path><path d="M78.9375 464.822V471.949" stroke="black" stroke-width="1.64454" stroke-linecap="round" stroke-linejoin="round"></path><path d="M73.7305 464.822V471.949" stroke="black" stroke-width="1.64454" stroke-linecap="round" stroke-linejoin="round"></path><path d="M68.5234 464.822V471.949" stroke="black" stroke-width="1.64454" stroke-linecap="round" stroke-linejoin="round"></path><path d="M63.3145 464.822V471.949" stroke="black" stroke-width="1.64454" stroke-linecap="round" stroke-linejoin="round"></path><path d="M58.1074 464.822V471.949" stroke="black" stroke-width="1.64454" stroke-linecap="round" stroke-linejoin="round"></path><path d="M52.9004 464.822V471.949" stroke="black" stroke-width="1.64454" stroke-linecap="round" stroke-linejoin="round"></path><path d="M47.6914 464.822V471.949" stroke="black" stroke-width="1.64454" stroke-linecap="round" stroke-linejoin="round"></path><path d="M42.4844 464.822V471.949" stroke="black" stroke-width="1.64454" stroke-linecap="round" stroke-linejoin="round"></path><path d="M91.8203 464H40.8397" stroke="black" stroke-width="1.64454" stroke-linecap="round" stroke-linejoin="round"></path><path d="M53.8965 513.728H1.72287V675.941H29.3625H53.8965V513.728Z" fill="#F2CBCD"></path><path d="M3.61997 674.992V508.037H56.7422V674.992" stroke="#D71920" stroke-width="1.64454" stroke-linecap="round" stroke-linejoin="round"></path><rect x="-0.822268" y="0.822268" width="58.6551" height="3.83725" rx="0.822268" transform="matrix(-1 0 0 1 58.6543 502.373)" stroke="#D71920" stroke-width="1.64454" stroke-linejoin="round"></rect><rect width="52.6252" height="3.83725" transform="matrix(-1 0 0 1 56.4609 510.047)" fill="#D71920"></rect><path d="M110.658 620.141L116.667 615.975C120.538 609.067 108.681 615.383 108.526 614.544C108.371 613.704 113.044 606.793 111.913 603.208C107.552 598.048 103.138 607.023 102.13 606.324C100.87 605.449 99.7639 595.907 97.0903 596.267C91.6576 596.999 95.8304 603.759 95.5396 606.324C91.4692 605.478 86.0977 601.353 85.455 603.732C84.2974 608.017 90.2416 609.793 90.9846 610.959C89.2724 610.026 85.455 610.959 85.455 614.051C85.455 616.729 90.6292 618.537 90.9846 620.928C89.9508 621.103 86.2338 620.627 86.0365 620.928C83.6082 624.632 92.3414 627.749 94.5705 630.46C93.1167 630.693 90.4946 628.48 90.9846 631.771C91.4746 635.062 95.5396 635.444 95.5396 635.969C95.5396 636.493 85.0781 631.914 84.2974 635.969C83.5167 640.023 93.0844 641.799 97.0903 644.714C94.7643 645.122 91.7653 640.921 90.9846 646.288C90.2039 651.654 97.9302 650.893 100.967 653.021L100.23 676.889H101.815L102.808 653.021C102.808 653.021 111.052 652.027 113.178 647.949C115.305 643.871 103.681 644.714 103.681 644.714C103.681 644.714 119.763 638.712 118.309 631.771C117.197 626.462 111.207 627.657 108.453 628.512C112.726 626.901 117.493 624.315 117.825 623.233C119.569 617.549 112.661 622.152 110.658 620.141Z" fill="#EBF1F2"></path><path d="M108.458 624.884L113.966 620.718C117.515 613.81 106.646 620.127 106.504 619.287C106.361 618.448 110.645 611.536 109.608 607.951C105.61 602.791 101.564 611.767 100.64 611.067C99.4853 610.192 98.4714 600.65 96.0206 601.01C91.0406 601.742 94.8657 608.502 94.5991 611.067C90.8679 610.222 85.944 606.097 85.3549 608.476C84.2938 612.76 89.7426 614.536 90.4237 615.702C88.8542 614.769 85.3549 615.702 85.3549 618.794C85.3549 621.472 90.098 623.281 90.4237 625.671C89.4761 625.846 86.0688 625.37 85.8879 625.671C83.662 629.376 91.6675 632.492 93.7108 635.203C92.3782 635.436 89.9746 633.223 90.4237 636.514C90.8729 639.805 94.5991 640.187 94.5991 640.712C94.5991 641.237 85.0095 636.657 84.2938 640.712C83.5781 644.767 92.3486 646.542 96.0206 649.457C93.8884 649.865 91.1394 645.665 90.4237 651.031C89.708 656.397 96.7905 655.636 99.5742 657.764L98.8984 681.632H100.352L101.262 657.764C101.262 657.764 108.818 656.77 110.768 652.692C112.717 648.614 102.062 649.457 102.062 649.457C102.062 649.457 116.804 643.455 115.471 636.514C114.139 629.574 105.166 633.748 105.166 633.748C109.342 632.232 114.69 629.177 115.027 627.976C116.626 622.292 110.294 626.895 108.458 624.884Z" stroke="#D71920" stroke-width="0.948611" stroke-linecap="round"></path><rect width="9.86722" height="15.8972" transform="matrix(-1 0 0 1 42.7578 573.452)" fill="white"></rect><rect width="9.86722" height="16.4454" transform="matrix(-1 0 0 1 25.7637 546.452)" fill="white"></rect><rect width="9.86722" height="16.4454" transform="matrix(-1 0 0 1 25.7637 520.452)" fill="white"></rect><rect width="9.86722" height="16.4454" transform="matrix(-1 0 0 1 25.9863 599.452)" fill="white"></rect><rect width="9.86722" height="16.4454" transform="matrix(-1 0 0 1 25.9863 626.452)" fill="white"></rect><rect width="9.86722" height="16.4454" transform="matrix(-1 0 0 1 41.9863 546.452)" fill="white"></rect><rect width="9.86722" height="16.4454" transform="matrix(-1 0 0 1 41.9863 520.452)" fill="white"></rect><rect width="9.86722" height="16.4454" transform="matrix(-1 0 0 1 42.9863 599.452)" fill="white"></rect><rect width="9.86722" height="16.4454" transform="matrix(-1 0 0 1 42.9863 626.452)" fill="white"></rect><rect width="9.86722" height="16.4454" transform="matrix(-1 0 0 1 25.9863 573.452)" fill="white"></rect><rect x="-0.822268" y="0.822268" width="8.22268" height="14.2526" transform="matrix(-1 0 0 1 42.209 522.655)" stroke="#D71920" stroke-width="1.64454" stroke-linejoin="round"></rect><rect x="-0.822268" y="0.822268" width="8.22268" height="14.8008" transform="matrix(-1 0 0 1 42.209 548.42)" stroke="#D71920" stroke-width="1.64454" stroke-linejoin="round"></rect><rect x="-0.822268" y="0.822268" width="8.22268" height="14.2526" transform="matrix(-1 0 0 1 42.209 574.732)" stroke="#D71920" stroke-width="1.64454" stroke-linejoin="round"></rect><rect x="-0.822268" y="0.822268" width="8.22268" height="14.8008" transform="matrix(-1 0 0 1 42.209 600.497)" stroke="#D71920" stroke-width="1.64454" stroke-linejoin="round"></rect><rect x="-0.822268" y="0.822268" width="8.22268" height="14.8008" transform="matrix(-1 0 0 1 42.209 628.452)" stroke="#D71920" stroke-width="1.64454" stroke-linejoin="round"></rect><rect x="-0.822268" y="0.822268" width="8.22268" height="14.8008" transform="matrix(-1 0 0 1 42.209 656.407)" stroke="#D71920" stroke-width="1.64454" stroke-linejoin="round"></rect><rect x="-0.822268" y="0.822268" width="8.22268" height="14.2526" transform="matrix(-1 0 0 1 25.2148 522.655)" stroke="#D71920" stroke-width="1.64454" stroke-linejoin="round"></rect><rect x="-0.822268" y="0.822268" width="8.22268" height="14.8008" transform="matrix(-1 0 0 1 25.2148 548.42)" stroke="#D71920" stroke-width="1.64454" stroke-linejoin="round"></rect><rect x="-0.822268" y="0.822268" width="8.22268" height="14.2526" transform="matrix(-1 0 0 1 25.2148 574.732)" stroke="#D71920" stroke-width="1.64454" stroke-linejoin="round"></rect><rect x="-0.822268" y="0.822268" width="8.22268" height="14.8008" transform="matrix(-1 0 0 1 25.2148 600.497)" stroke="#D71920" stroke-width="1.64454" stroke-linejoin="round"></rect><rect x="-0.822268" y="0.822268" width="8.22268" height="14.8008" transform="matrix(-1 0 0 1 25.2148 628.452)" stroke="#D71920" stroke-width="1.64454" stroke-linejoin="round"></rect><rect x="-0.822268" y="0.822268" width="8.22268" height="14.8008" transform="matrix(-1 0 0 1 25.2148 656.407)" stroke="#D71920" stroke-width="1.64454" stroke-linejoin="round"></rect><path d="M140.692 53.2959C124.337 66.864 61.9681 56.8956 43.9504 49.1424C25.9326 41.3892 25.6555 25.8827 41.4556 23.6675C51.9995 22.1893 67.2344 27.6165 73.3207 31.6379C78.2737 25.462 94.1712 14.4132 101.884 16.1912C108.551 17.7281 113.004 22.7403 114.268 25.9671C120.594 22.1194 139.278 16.5334 148.73 23.6675C161.204 33.0821 157.046 39.7278 140.692 53.2959Z" fill="white"></path><path d="M822.224 179.858C800.029 198.36 715.385 184.767 690.933 174.194C666.48 163.622 666.104 142.476 687.547 139.456C701.856 137.44 722.532 144.841 730.792 150.324C737.514 141.903 759.089 126.836 769.557 129.261C778.605 131.357 784.648 138.191 786.364 142.591C794.949 137.345 820.306 129.727 833.134 139.456C850.062 152.294 844.42 161.356 822.224 179.858Z" fill="white"></path><path d="M705.604 682.874C722.388 684.87 776.673 686.981 816.009 684.42C855.345 681.859 863.795 626.003 863.956 621.544C864.989 592.965 838.908 637.353 828.773 635.105C818.638 632.856 832.887 608.457 822.775 602.037C812.663 595.616 799.714 617.038 791.681 624.955C783.647 632.871 783.037 606.184 772.054 599.138C761.071 592.092 763.331 621.013 751.086 631.212C738.841 641.411 739.592 605.716 722.838 619.38C706.083 633.044 688.819 680.879 705.604 682.874Z" fill="#FEE6E8"></path><path d="M623.748 684.544C640.689 684.814 673.224 681.196 699.039 685.742C724.855 690.288 745.182 619.057 744.886 614.617C742.985 586.155 721.532 632.855 711.196 631.657C700.86 630.458 712.564 604.798 701.823 599.458C691.083 594.118 680.368 616.692 673.17 625.366C665.972 634.039 662.626 607.622 650.953 601.75C639.279 595.879 638.995 623.616 627.831 634.984C616.668 646.351 619.26 611.585 603.955 626.85C588.651 642.115 606.808 684.275 623.748 684.544Z" fill="#F2CBCD"></path><path d="M634.184 682.754C651.124 683.024 683.659 679.406 709.475 683.952C735.29 688.497 755.618 617.267 755.321 612.827C753.42 584.365 731.968 631.065 721.631 629.867C711.295 628.668 723 603.008 712.259 597.668C701.518 592.328 690.804 614.902 683.606 623.576C676.407 632.249 673.062 605.832 661.388 599.96C649.714 594.088 649.43 621.826 638.267 633.194C627.103 644.561 629.696 609.795 614.391 625.06C599.086 640.325 617.243 682.485 634.184 682.754Z" stroke="#272A2F" stroke-width="1.89722"></path><path d="M793.789 687.292V649.954V635.791C793.789 635.791 806.355 651.563 818.062 631.285C829.769 611.007 806.417 603.282 806.417 603.282C806.417 603.282 800.498 599.258 804.707 608.271C808.916 617.284 826.614 601.661 823.992 590.797C821.371 579.934 812.336 576.01 806.417 575.849C800.498 575.688 799.577 580.838 806.417 580.999C813.257 581.16 814.441 572.63 809.574 566.675C804.707 560.721 794.579 550.494 792.342 555C790.106 559.507 792.342 566.588 796.42 563.53C800.498 560.472 810.495 552.747 796.42 546.149C782.345 539.55 781.162 563.53 781.162 563.53C781.162 563.53 781.162 569.485 786.292 563.53C791.422 557.575 785.634 556.127 777.478 559.829C769.323 563.53 762.746 563.369 762.746 576.888C762.746 590.407 772.994 590.797 772.994 590.797C772.994 590.797 776.809 594.499 776.677 584.682C776.546 574.865 767.601 583.233 767.075 592.407C766.549 601.58 772.52 613.164 778.925 613.596C785.329 614.029 787.256 612.013 778.925 608.271C770.593 604.529 761.299 617.444 762.746 624.365C764.193 631.285 771.691 626.296 775.374 628.871C779.057 631.446 781.293 626.94 775.374 624.365C769.455 621.79 768.402 633.538 775.374 640.298C782.345 647.057 789.185 635.791 789.185 635.791V687.292" stroke="#D71920" stroke-width="1.89722" stroke-linecap="round" stroke-linejoin="round"></path><path fill-rule="evenodd" clip-rule="evenodd" d="M603.29 626.194C603.208 625.808 603.164 625.405 603.164 624.989C603.164 622.201 605.127 619.94 607.548 619.94C609.97 619.94 611.933 622.201 611.933 624.989C611.933 625.517 611.862 626.026 611.732 626.504C611.788 626.502 611.844 626.501 611.9 626.501C614.322 626.501 616.284 628.761 616.284 631.55C616.284 632.437 616.086 633.272 615.736 633.996C619.895 634.584 623.102 638.308 623.102 642.815C623.102 646.277 621.209 649.277 618.446 650.749C619.594 651.923 620.317 653.636 620.317 655.543C620.317 659.085 617.824 661.956 614.749 661.956C613.443 661.956 612.243 661.439 611.293 660.572C610.936 660.871 610.557 661.137 610.161 661.368V681.432L608.203 680.038V662.173C607.621 662.321 607.016 662.399 606.396 662.399C602.612 662.399 599.416 659.501 598.389 655.527C598.286 655.538 598.182 655.543 598.076 655.543C596.185 655.543 594.652 653.778 594.652 651.6C594.652 651.299 594.681 651.006 594.737 650.725C589.729 647.764 587.595 642.071 589.973 637.947C591.364 635.533 593.995 634.186 596.955 634.056C596.335 632.364 596.387 630.569 597.257 629.059C598.421 627.041 600.756 626.033 603.29 626.194Z" fill="#D71920"></path><path d="M1025.34 95.3404H1422.66V574.66H1025.34V95.3404Z" fill="#E0E0E0" stroke="white" stroke-width="4.68085" stroke-linejoin="round"></path><path d="M1023 492H1308.5C1312.64 492 1316 495.358 1316 499.5V499.5C1316 503.642 1312.64 507 1308.5 507H1023V492Z" fill="white"></path><path d="M1277.31 574.663C1278.34 577.032 1281.1 578.112 1283.47 577.076C1285.84 576.039 1286.92 573.279 1285.88 570.911L1277.31 574.663ZM1244.54 499.77L1277.31 574.663L1285.88 570.911L1253.12 496.017L1244.54 499.77Z" fill="white"></path><path d="M990 566.936H1532.98V588H990V566.936Z" fill="white"></path><path d="M1310.83 455.617H1260.51L1276.52 493.064H1298.94L1310.83 455.617Z" stroke="white" stroke-width="4.68085" stroke-linecap="round" stroke-linejoin="round"></path><path d="M1257.59 429.586C1253.96 430.807 1268.09 450.504 1273.06 455.617H1297.37C1298.85 452.208 1307.32 441.207 1307.32 431.91C1307.32 420.939 1296.27 433.769 1294.06 435.164C1291.85 436.558 1293.51 430.051 1294.06 419.824C1294.61 409.597 1287.98 430.051 1285.22 435.164C1282.45 440.277 1279.14 428.656 1273.06 419.824C1266.98 410.992 1269.19 434.699 1269.19 437.953C1269.19 441.207 1260.35 428.656 1257.59 429.586Z" fill="white"></path><path d="M834 381L1022 316.5" stroke="#FBE8E9" stroke-width="4"></path><path d="M938 122V588" stroke="#FBE8E9" stroke-width="4"></path><path d="M834.5 620.775V156.092L1019.5 99.7253V564.408L834.5 620.775Z" stroke="#FBE8E9" stroke-width="7"></path><path d="M1067.99 510.766H1213.09V566.936H1067.99V510.766Z" fill="#D71920"></path><path d="M1091.5 262.87C1111.84 261.175 1105.51 267.962 1116.96 281.964C1128.42 295.966 1156.42 293.42 1161.51 293.42C1166.61 293.42 1165.33 287.055 1165.33 287.055C1172.12 290.874 1186.46 297.493 1189.52 293.42C1192.57 289.346 1203.52 301.057 1214.98 298.511C1226.43 295.966 1226.43 297.238 1228.98 293.42C1231.53 289.601 1218.8 287.055 1222.61 275.599C1226.43 264.143 1239.16 266.689 1234.07 250.141C1228.98 233.593 1195.88 211.954 1193.34 203.043C1190.79 194.133 1180.03 181.208 1177.49 168.479C1175.97 160.886 1162.34 148 1147.06 148C1138.91 148 1139.31 151.918 1130.68 150.34C1120.73 148.523 1120.73 145.074 1109.03 153.851C1100.63 160.153 1096.98 147.035 1086.8 159.764C1071.86 178.439 1094.34 190.827 1078.78 211.954C1060.95 236.139 1076.23 264.143 1091.5 262.87Z" stroke="black" stroke-width="2.34043"></path><path d="M1097.69 260.53C1118.03 258.835 1111.69 265.621 1123.15 279.623C1134.61 293.625 1162.61 291.079 1167.7 291.079C1172.79 291.079 1171.52 284.715 1171.52 284.715C1178.31 288.534 1192.65 295.153 1195.71 291.079C1198.76 287.006 1209.71 298.717 1221.16 296.171C1232.62 293.625 1232.62 294.898 1235.17 291.079C1237.71 287.261 1224.98 284.715 1228.8 273.259C1232.62 261.803 1245.35 264.348 1240.26 247.801C1235.16 231.253 1202.07 209.613 1199.52 200.703C1196.98 191.793 1186.22 178.867 1183.68 166.138C1182.16 158.546 1168.53 145.66 1153.25 145.66C1145.1 145.66 1145.5 149.578 1136.87 148C1126.92 146.183 1126.92 142.734 1115.22 151.511C1106.82 157.813 1103.17 144.695 1092.98 157.424C1078.04 176.099 1100.53 188.487 1084.96 209.613C1067.14 233.799 1082.42 261.803 1097.69 260.53Z" fill="#414141"></path><path d="M1171.39 305.979H1122.24C1122.24 305.979 1133.36 296.641 1136.14 287.303C1138.93 277.966 1134.15 267.362 1134.15 267.362L1158.39 268.628V287.303C1158.39 294.307 1171.39 305.979 1171.39 305.979Z" fill="#EFC092"></path><path d="M1174.9 309.489H1125.75C1125.75 309.489 1136.87 299.303 1139.66 289.116C1142.44 278.93 1137.66 267.362 1137.66 267.362L1161.91 268.743V289.116C1161.91 296.756 1174.9 309.489 1174.9 309.489Z" stroke="black" stroke-width="2.34043"></path><path d="M1182.89 218.886C1185.09 247.048 1170.22 271.135 1149.67 272.685C1138 275.778 1117.78 258.036 1111.88 228.537C1105.51 196.69 1121.16 172.251 1141.71 170.701C1162.25 169.15 1180.69 190.724 1182.89 218.886Z" fill="#FFD5AC"></path><path d="M1183.09 219.383C1185.29 247.545 1170.8 272.042 1148.57 273.213C1132.77 273.213 1115.44 258.036 1109.54 228.537" stroke="black" stroke-width="2.34043" stroke-linecap="round"></path><ellipse cx="2.70616" cy="4.12822" rx="2.70616" ry="4.12822" transform="matrix(0.996758 -0.0804633 0.0832938 0.996525 1156.03 212.998)" fill="black"></ellipse><path d="M1153.01 195.865C1156.01 195.735 1160.93 194.826 1165.91 197.116C1168.43 198.581 1170.53 200.645 1172.33 202.723" stroke="black" stroke-width="2.67979" stroke-linecap="round"></path><ellipse cx="2.70616" cy="4.12822" rx="2.70616" ry="4.12822" transform="matrix(-0.996758 -0.0804633 -0.0832938 0.996525 1134.2 212.998)" fill="black"></ellipse><path d="M1133.99 193.938C1130.99 194.113 1126 193.709 1121.28 196.494C1118.92 198.206 1117.04 200.473 1115.47 202.723" stroke="black" stroke-width="2.67979" stroke-linecap="round"></path><path d="M1089.5 309.202L1111.64 296.617C1111.64 296.617 1117.59 305.887 1135.15 305.887C1152.71 305.887 1157.2 296.617 1157.2 296.617L1190 314.402L1208.41 517.787L1066.23 514.277L1089.5 309.202Z" fill="#F5F5F5"></path><path d="M1193.53 317.913L1158.68 300.128C1158.68 300.128 1153.91 309.398 1135.25 309.398C1116.59 309.398 1110.27 300.128 1110.27 300.128L1086.75 312.713L1064.48 516.032L1213.09 521.298L1203.31 419.605" stroke="#D71920" stroke-width="3.51064" stroke-linecap="round" stroke-linejoin="round"></path><path d="M1189.1 328.798C1189.1 345.181 1235.33 432.947 1194.37 525.979L1212.16 542.362C1253.62 467.033 1248.55 371.128 1235.33 334.649C1222.1 298.17 1189.1 312.415 1189.1 328.798Z" fill="#FFD5AC"></path><path d="M1133.33 237.617C1133.33 235.071 1143.52 217.25 1143.52 217.25L1149.88 237.617C1149.88 237.617 1133.33 240.163 1133.33 237.617Z" fill="#F3BB84"></path><path d="M1153.7 256.711C1166.43 256.711 1168.97 245.255 1168.97 245.255" stroke="black" stroke-width="2.34043" stroke-linecap="round" stroke-linejoin="round"></path><path d="M1169.63 152.096C1166.31 151.387 1114.05 148.585 1114.05 194.808C1129.84 168.478 1128.09 171.404 1162.61 190.127C1193.62 204.755 1208.83 172.86 1216.44 167.308C1194.79 177.255 1190.63 156.578 1169.63 152.096Z" fill="#414141"></path><path d="M1210.17 167.309C1202.56 174.33 1193.2 198.611 1162.19 183.984C1127.67 165.26 1129.42 162.335 1113.62 188.664" stroke="black" stroke-width="2.34043" stroke-linecap="round"></path><path d="M1202.56 166.138C1194.95 173.16 1188.52 188.664 1157.51 174.037C1122.99 155.313 1124.74 152.388 1108.94 178.718" stroke="black" stroke-width="2.34043" stroke-linecap="round"></path><path d="M1194.96 164.383C1187.35 171.404 1182.08 181.936 1148.73 160.287" stroke="black" stroke-width="2.34043" stroke-linecap="round"></path><path d="M1126.49 405.582C1126.43 404.238 1127.5 403.114 1128.85 403.122L1162.05 403.321C1163.4 403.329 1164.46 404.471 1164.38 405.815L1160.54 463.812C1160.46 465.042 1159.44 465.999 1158.2 465.999L1131.79 465.983C1130.54 465.982 1129.52 465.006 1129.45 463.762L1126.49 405.582Z" fill="#9A1419"></path><path d="M1130.18 409.809C1130.1 408.457 1131.18 407.319 1132.53 407.327L1144.45 407.399C1145.79 407.407 1146.85 408.535 1146.78 409.873L1145.94 424.304C1145.87 425.543 1144.85 426.511 1143.6 426.511L1133.39 426.511C1132.15 426.511 1131.13 425.547 1131.05 424.312L1130.18 409.809Z" fill="#526C6D"></path><ellipse cx="2.97003" cy="2.93739" rx="2.97003" ry="2.93739" transform="matrix(0.826618 -0.562763 0.587941 0.808904 1130.62 412.236)" fill="#D9D9D9"></ellipse><ellipse cx="2.15093" cy="2.12729" rx="2.15093" ry="2.12729" transform="matrix(0.826618 -0.562763 0.587941 0.808904 1131.77 419.57)" fill="#D9D9D9"></ellipse><ellipse cx="2.97003" cy="2.93739" rx="2.97003" ry="2.93739" transform="matrix(0.826618 -0.562763 0.587941 0.808904 1138.12 412.457)" fill="#D9D9D9"></ellipse><ellipse cx="1.48502" cy="1.46869" rx="1.48502" ry="1.46869" transform="matrix(0.826618 -0.562763 0.587941 0.808904 1132.71 412.588)" fill="white"></ellipse><ellipse cx="1.48502" cy="1.46869" rx="1.48502" ry="1.46869" transform="matrix(0.826618 -0.562763 0.587941 0.808904 1140.22 412.81)" fill="white"></ellipse><ellipse cx="1.07546" cy="1.06364" rx="1.07546" ry="1.06364" transform="matrix(0.826618 -0.562763 0.587941 0.808904 1133.29 419.826)" fill="white"></ellipse><path d="M1059.44 329.687C1105.07 277.219 1104.5 327.347 1095.71 337.879C1086.93 348.411 1016.5 445.234 1012.99 451.085C1010.17 455.784 1061.78 444.368 1088.11 448.463C1097.47 447.293 1125.31 433.753 1129.07 435.006L1129.07 441.442C1128.12 441.667 1127.04 442.703 1125.82 442.931C1152.55 442.931 1159.52 440.995 1159.52 444.368C1159.52 446.914 1130.38 446.715 1131.24 448.463C1131.9 449.81 1162.44 442.931 1162.44 448.463C1162.44 453.996 1130.21 453.341 1130.66 454.314C1140.84 455.587 1159.52 449.808 1159.52 454.9C1158.24 457.445 1134.85 457.964 1133.75 458.41C1131.15 459.474 1159.52 456.244 1159.52 461.336C1147.14 461.815 1115.63 470.112 1104.5 461.336C1093.36 452.559 985.373 503.725 972.615 480.34C972.615 458.692 1013.8 382.154 1059.44 329.687Z" fill="#FFD5AC"></path><path d="M1122.07 438.331C1118.32 437.057 1101 446.067 1091.62 447.294C1060.61 438.331 1005.44 451.292 1008.3 446.466C1011.88 440.457 1087.46 346.711 1091.62 334.953C1095.77 323.196 1099.55 281.029 1053.36 334.954C1007.16 388.878 973.453 444.649 973.198 471.564C972.944 498.479 1086.37 458.805 1097.43 467.772C1108.49 476.74 1141.66 464.788 1154.06 464.262C1156.98 458.642 1123.92 463.412 1126.53 462.314C1127.63 461.854 1155.69 461.024 1156.98 458.411C1157.03 453.19 1135.01 458.196 1124.82 456.92C1124.39 455.923 1159.86 458.232 1159.91 452.56C1159.96 446.887 1125.53 452.3 1124.88 450.921C1124.04 449.13 1156.96 449.077 1156.98 446.466C1157.02 443.009 1148.21 442.6 1120.71 444.368" stroke="black" stroke-width="3.51064" stroke-linecap="round" stroke-linejoin="round"></path><path d="M1067.99 511.936C1073.59 511.936 1153.02 513.497 1192.03 514.277" stroke="#5F0B0E" stroke-width="2.34043" stroke-linecap="round"></path><path d="M1097.83 504.915L1097.83 509.596" stroke="#5F0B0E" stroke-width="2.34043" stroke-linecap="round"></path><path d="M1068.56 504.915L1068.56 509.596" stroke="#5F0B0E" stroke-width="2.34043" stroke-linecap="round"></path><path d="M1113.03 504.915L1113.03 509.596" stroke="#5F0B0E" stroke-width="2.34043" stroke-linecap="round"></path><path d="M1083.77 504.915L1083.77 509.596" stroke="#5F0B0E" stroke-width="2.34043" stroke-linecap="round"></path><path d="M1128.23 504.915L1128.23 509.596" stroke="#5F0B0E" stroke-width="2.34043" stroke-linecap="round"></path><path d="M1143.44 504.915L1143.44 509.596" stroke="#5F0B0E" stroke-width="2.34043" stroke-linecap="round"></path><path d="M1158.64 504.915L1158.64 509.596" stroke="#5F0B0E" stroke-width="2.34043" stroke-linecap="round"></path><path d="M1173.85 504.915L1173.85 509.596" stroke="#5F0B0E" stroke-width="2.34043" stroke-linecap="round"></path><path d="M1189.05 504.915L1189.05 509.596" stroke="#5F0B0E" stroke-width="2.34043" stroke-linecap="round"></path><path d="M1182.48 518.958C1184.82 521.298 1194.76 533.585 1199.44 539.436" stroke="#5F0B0E" stroke-width="2.34043" stroke-linecap="round"></path><path d="M1190.27 521.547C1224.79 439.633 1186.26 332.237 1185.59 320.856C1184.93 309.475 1213.32 294.075 1226.55 330.553C1239.78 367.032 1253.38 467.618 1211.92 542.947" stroke="black" stroke-width="3.51064" stroke-linecap="round"></path><path d="M1071 157.898C1071 191.221 1039 219 1007 234.5C999.669 239.621 1036 250 1036 250C1036 250 1013.5 269 964 250C909.799 250 874.721 212.099 874.721 157.898C874.721 103.697 918.659 59.7581 972.86 59.7581C1027.06 59.7581 1071 103.697 1071 157.898Z" fill="white"></path><path d="M957.5 241.533C900.659 241.533 861.967 198.328 861.967 145.14C861.967 92.0247 905.025 48.9667 958.14 48.9667C1011.25 48.9667 1054.31 92.0247 1054.31 145.14C1054.31 182.998 1032.44 215.75 1000.63 231.441C998.307 232.587 997.151 234.832 997.429 237.424C997.691 239.86 999.181 242.461 1001.68 244.948C1005.99 249.252 1013.78 253.688 1025.86 256.939C1006.96 263.34 991.882 260.266 980.8 255.329C974.666 252.596 969.729 249.278 966.006 246.605C965.315 246.109 964.651 245.624 964.024 245.166C962.998 244.418 962.073 243.742 961.298 243.213C960.662 242.78 960.051 242.391 959.492 242.104C958.992 241.848 958.274 241.533 957.5 241.533Z" stroke="black" stroke-width="3.93334"></path><ellipse cx="962.969" cy="195.362" rx="74.9695" ry="8.55436" fill="#D9D9D9"></ellipse><path d="M992.103 120.57C976.012 85.3453 934.495 95.4944 927.576 130.185C920.657 164.875 957.812 197.871 957.812 197.871C957.812 197.871 1008.19 155.795 992.103 120.57Z" fill="#D71920"></path><circle cx="962.539" cy="135.603" r="17.5701" fill="#D9D9D9"></circle><path d="M986.874 116.644C970.783 81.4197 929.266 91.5689 922.348 126.259C915.429 160.949 952.583 193.945 952.583 193.945C952.583 193.945 1002.97 151.869 986.874 116.644Z" stroke="black" stroke-width="2.62223"></path><circle cx="957.308" cy="131.678" r="16.259" stroke="black" stroke-width="2.62223"></circle><rect x="379" y="116" width="116" height="59" fill="#D9D9D9"></rect></g><defs><clipPath id="clip0_2922_1439"><rect width="1366" height="672" fill="white"></rect></clipPath></defs></svg>