<svg width="25" height="26" viewBox="0 0 25 26" fill="none" xmlns="http://www.w3.org/2000/svg">
<path d="M22.25 13C22.25 9.53125 20.375 6.34375 17.375 4.5625C14.3281 2.82812 10.625 2.82812 7.625 4.5625C4.57812 6.34375 2.75 9.53125 2.75 13C2.75 16.5156 4.57812 19.7031 7.625 21.4844C10.625 23.2188 14.3281 23.2188 17.375 21.4844C20.375 19.7031 22.25 16.5156 22.25 13ZM0.5 13C0.5 8.73438 2.75 4.79688 6.5 2.64062C10.2031 0.484375 14.75 0.484375 18.5 2.64062C22.2031 4.79688 24.5 8.73438 24.5 13C24.5 17.3125 22.2031 21.25 18.5 23.4062C14.75 25.5625 10.2031 25.5625 6.5 23.4062C2.75 21.25 0.5 17.3125 0.5 13ZM8.42188 8.78125C8.79688 7.70312 9.78125 7 10.9062 7H13.625C15.2656 7 16.625 8.35938 16.625 10C16.625 11.0312 16.0156 12.0156 15.125 12.5312L13.625 13.4219C13.5781 14.0312 13.1094 14.5 12.5 14.5C11.8438 14.5 11.375 14.0312 11.375 13.375V12.7656C11.375 12.3438 11.5625 11.9688 11.9375 11.7812L14 10.6094C14.2344 10.4688 14.375 10.2344 14.375 10C14.375 9.57812 14.0469 9.29688 13.625 9.29688H10.9062C10.7656 9.29688 10.625 9.39062 10.5781 9.53125L10.5312 9.57812C10.3438 10.1875 9.6875 10.4688 9.125 10.2812C8.51562 10.0469 8.23438 9.39062 8.42188 8.82812V8.78125ZM11 17.5C11 16.7031 11.6562 16 12.5 16C13.2969 16 14 16.7031 14 17.5C14 18.3438 13.2969 19 12.5 19C11.6562 19 11 18.3438 11 17.5Z" fill="#272A2F"></path>
</svg>