<svg width="156" height="156" viewBox="0 0 156 156" fill="none" xmlns="http://www.w3.org/2000/svg">
<g clip-path="url(#clip0_435_104)">
<path d="M119.136 32.8606H20.625V120.788H119.136V32.8606Z" fill="#F2CBCD"></path>
<path d="M124.04 37.5629H28.5297V122.49H124.04V37.5629Z" stroke="black" stroke-width="3"></path>
<path d="M45.0558 37.2336L63.5265 37.4541L63.0796 79.3041L61.7864 76.8471L60.441 79.2726L59.1477 76.8156L57.4724 79.2371L55.8419 77.4737L54.1741 79.1977L52.5436 77.4343L49.5527 79.4914L47.9333 76.6817L44.6089 79.0836L45.0558 37.2336Z" fill="white"></path>
<path d="M60.1657 73.2232L59.8526 72.6283L58.9556 74.2455L58.5072 75.0538L58.0763 74.235L57.3072 72.774L56.3689 74.1303L55.4028 75.5268L54.6195 74.6797L53.9013 73.9029L53.1666 74.6623L52.2335 75.6269L51.3212 74.6403L50.733 74.0041L50.02 74.4945L47.9214 75.9379L46.8434 74.0675L46.2893 73.1061L45.3909 73.7552L43.6738 74.9958L44.0889 36.1299L60.5597 36.3265L60.1657 73.2232Z" stroke="#5F0B0E" stroke-width="2"></path>
<path d="M103.528 116.184C105.778 117.815 108.568 118.312 110.087 118.259L110.189 118.256H110.29C116.48 118.256 121.498 113.238 121.498 107.048C121.32 103.312 118.723 95.8397 109.756 95.8397V104.913L90.0084 86.7664L110.29 74.4908V84.0978C122.965 84.0978 133.24 94.3728 133.24 107.048C133.24 119.69 123.017 129.945 110.387 129.998C106.748 130.101 101.325 129.089 96.6369 125.691C91.5898 122.033 87.8735 115.934 87.8735 107.048H99.6154C99.6154 112.251 101.592 114.781 103.528 116.184Z" fill="#E52E34"></path>
<path d="M112.324 119.391H112.306H112.289L112.188 119.395C110.85 119.441 108.289 118.988 106.25 117.51C104.579 116.298 102.75 114.072 102.75 109.183V108.183H101.75H90.0084H89.0084V109.183C89.0084 118.383 92.8727 124.785 98.1849 128.636C103.077 132.182 108.721 133.238 112.539 133.132C125.713 133.071 136.375 122.372 136.375 109.183C136.375 96.2905 126.188 85.7775 113.425 85.2533V76.6258V74.8516L111.907 75.7703L91.6255 88.0459L90.4854 88.736L91.4667 89.6377L111.214 107.784L112.891 109.325V107.048V99.009C116.475 99.2606 118.787 100.862 120.264 102.786C121.901 104.919 122.547 107.499 122.633 109.207C122.62 114.833 118.055 119.391 112.425 119.391H112.324Z" stroke="black" stroke-width="2"></path>
</g>
<defs>
<clipPath id="clip0_435_104">
<rect width="156" height="156" fill="white"></rect>
</clipPath>
</defs>
</svg>