<?xml version="1.0"?><svg id="Capa_1" xmlns="http://www.w3.org/2000/svg" viewBox="0 0 156 156"><defs></defs><path class="cls-4" d="M113.5,30.5H16.5v87h97V30.5Z"></path><path class="cls-1" d="M118,35H24v84h94V35Z"></path><path class="cls-5" d="M40.1,35.13l18.22.22-.44,41.29-1.28-2.42-1.33,2.39-1.28-2.42-1.65,2.39-1.61-1.74-1.65,1.7-1.61-1.74-2.95,2.03-1.6-2.77-3.28,2.37.44-41.29Z"></path><path class="cls-3" d="M54.99,70.58l-.3-.56-.9,1.62-.43.78-.41-.79-.77-1.46-.94,1.36-.94,1.36-.76-.82-.72-.78-.73.76-.91.94-.89-.96-.59-.64-.71.49-2.06,1.42-1.06-1.83-.55-.96-.9.65-1.67,1.21.41-38.3,16.22.19-.39,36.33Z"></path><path class="cls-6" d="M106.25,123.9c-.66-.17-2.6-.77-3.66-1.44-1.92-1.23-2.3-2.16-2.3-2.16-.08-.31-.31-.56-.61-.67-.3-.11-.63-.08-.9.1-2.27,1.48-3.09,1.5-5.82.15-1.49-.74-2.6-2.01-3.13-3.58s-.42-3.26.32-4.74l6.71-13.56c1.52-3.07,5.25-4.33,8.32-2.81,3.18,1.58,4.61,5.45,3.09,8.52l-.46,1.11c-.04.1-.06.2-.07.3,0,.16-.27,3.89,2.83,5.21,3.12,1.32,5.22-.28,5.31-.35.12-.1.22-.22.29-.37l.78-1.67c3.97-8.01.67-17.76-7.34-21.72-8.01-3.97-17.76-.67-21.72,7.34l-6.71,13.56c-3.97,8.01-.67,17.76,7.34,21.72,2.62,1.3,5.27,1.93,7.78,1.93,4.27,0,8.09-1.83,10.52-5.32.19-.27.23-.61.12-.92s-.37-.54-.69-.62h0Z"></path><path class="cls-2" d="M107.74,125.85c-.66-.17-2.6-.77-3.66-1.44-1.92-1.23-2.3-2.16-2.3-2.16-.08-.31-.31-.56-.61-.67-.3-.11-.63-.08-.9.1-2.27,1.48-3.09,1.5-5.82.15-1.49-.74-2.6-2.01-3.13-3.58s-.42-3.26.32-4.74l6.71-13.56c1.52-3.07,5.25-4.33,8.32-2.81,3.18,1.58,4.61,5.45,3.09,8.52l-.46,1.11c-.04.1-.06.2-.07.3,0,.16-.27,3.89,2.83,5.21,3.12,1.32,5.22-.28,5.31-.35.12-.1.22-.22.29-.37l.78-1.67c3.97-8.01.67-17.76-7.34-21.72-8.01-3.97-17.76-.67-21.72,7.34l-6.71,13.56c-3.97,8.01-.67,17.76,7.34,21.72,2.62,1.3,5.27,1.93,7.78,1.93,4.27,0,8.09-1.83,10.52-5.32.19-.27.23-.61.12-.92s-.37-.54-.69-.62h0Z"></path><path class="cls-6" d="M128.19,80.47c-7.5-4.07-15.43-2.01-18.76,2.33-.2.26-.26.61-.15.93.11.32.37.56.69.64.02,0,2.25.61,3.88,1.66,1.98,1.27,2.76,2.61,2.77,2.61.26.46.83.64,1.3.42.03,0,2.77-1.29,5.5.2,1.46.79,2.52,2.1,2.99,3.69.47,1.59.3,3.27-.5,4.73l-7.21,13.29c-.79,1.46-2.1,2.52-3.69,2.99-1.59.47-3.27.3-4.73-.5-3.01-1.63-4.13-5.41-2.46-8.49l.55-1.24c.06-.14.09-.29.09-.44,0-.14-.14-3.4-2.87-5.07-1.79-1.1-4.62-.42-4.93-.34-.27.07-.5.25-.63.49l-1.03,1.9c-4.26,7.86-1.34,17.72,6.52,21.98,2.45,1.33,5.09,1.96,7.7,1.96,5.76,0,11.34-3.07,14.28-8.48l7.21-13.29c4.26-7.86,1.34-17.72-6.52-21.98h0Z"></path><path class="cls-2" d="M129.35,83.47c-7.5-4.07-15.43-2.01-18.76,2.33-.2.26-.26.61-.15.93.11.32.37.56.69.64.02,0,2.25.61,3.88,1.66,1.98,1.27,2.76,2.61,2.77,2.61.26.46.83.64,1.3.42.03,0,2.77-1.29,5.5.2,1.46.79,2.52,2.1,2.99,3.69.47,1.59.3,3.27-.5,4.73l-7.21,13.29c-.79,1.46-2.1,2.52-3.69,2.99-1.59.47-3.27.3-4.73-.5-3.01-1.63-4.13-5.41-2.46-8.49l.55-1.24c.06-.14.09-.29.09-.44,0-.14-.14-3.4-2.87-5.07-1.79-1.1-4.62-.42-4.93-.34-.27.07-.5.25-.63.49l-1.03,1.9c-4.26,7.86-1.34,17.72,6.52,21.98,2.45,1.33,5.09,1.96,7.7,1.96,5.76,0,11.34-3.07,14.28-8.48l7.21-13.29c4.26-7.86,1.34-17.72-6.52-21.98h0Z"></path></svg>