<svg width="156" height="156" viewBox="0 0 156 156" fill="none" xmlns="http://www.w3.org/2000/svg">
<g clip-path="url(#clip0_435_29)">
<path d="M77.7674 18.0612H11.25V134.36H77.7674V18.0612Z" fill="#F2CBCD"></path>
<path d="M73.9133 78.9081H69.3724V97.0714H73.9133V78.9081Z" fill="#D71920"></path>
<path d="M73.9133 38.0408H69.3724V56.2041H73.9133V38.0408Z" fill="#D71920"></path>
<path d="M80.5865 23.1396H17.0691V136.439H80.5865V23.1396Z" stroke="black" stroke-width="3"></path>
<path d="M80.5867 23.1938H17.2908V66.5101H80.5867V23.1938Z" stroke="black" stroke-width="3"></path>
<path d="M144.75 73.4592H82.0867V137.939H144.75V73.4592Z" fill="#D9D9D9"></path>
<path d="M111.148 122.5C120.176 122.5 127.495 115.181 127.495 106.153C127.495 97.1249 120.176 89.8062 111.148 89.8062C102.12 89.8062 94.8011 97.1249 94.8011 106.153C94.8011 115.181 102.12 122.5 111.148 122.5Z" fill="#E52E34"></path>
<path d="M109.332 119.184C117.532 119.184 124.179 112.537 124.179 104.337C124.179 96.1373 117.532 89.4901 109.332 89.4901C101.132 89.4901 94.4851 96.1373 94.4851 104.337C94.4851 112.537 101.132 119.184 109.332 119.184Z" stroke="black" stroke-width="3"></path>
<path d="M139.301 82.5408V70.7347H82.0867V82.5408H139.301Z" fill="#969696"></path>
<path d="M140.525 69.5103H80.8622V132.806H140.525V69.5103Z" stroke="#181818" stroke-width="3"></path>
<path d="M132.036 79.8163C134.042 79.8163 135.669 78.1899 135.669 76.1837C135.669 74.1774 134.042 72.551 132.036 72.551C130.03 72.551 128.403 74.1774 128.403 76.1837C128.403 78.1899 130.03 79.8163 132.036 79.8163Z" fill="#D71920"></path>
<path d="M122.954 79.8163C124.96 79.8163 126.587 78.1899 126.587 76.1837C126.587 74.1774 124.96 72.551 122.954 72.551C120.948 72.551 119.321 74.1774 119.321 76.1837C119.321 78.1899 120.948 79.8163 122.954 79.8163Z" fill="#D71920"></path>
</g>
<defs>
<clipPath id="clip0_435_29">
<rect width="156" height="156" fill="white"></rect>
</clipPath>
</defs>
</svg>