<svg width="156" height="156" viewBox="0 0 156 156" fill="none" xmlns="http://www.w3.org/2000/svg">
<g clip-path="url(#clip0_435_18)">
<path d="M101.287 28.75H9V111.122H101.287V28.75Z" fill="#F2CBCD"></path>
<path d="M105.779 32.7845H16.4926V112.157H105.779V32.7845Z" stroke="black" stroke-width="3"></path>
<path d="M31.8871 32.8467L49.1908 33.0533L48.7722 72.2592L47.5606 69.9574L46.3002 72.2297L45.0887 69.9279L43.5193 72.1965L41.9917 70.5444L40.4293 72.1596L38.9018 70.5076L36.0999 72.4346L34.5828 69.8025L31.4684 72.0526L31.8871 32.8467Z" fill="white"></path>
<path d="M45.9819 66.3118L45.7505 65.8722L44.8534 67.4894L44.4901 68.1445L44.1408 67.4809L43.3718 66.0199L42.4335 67.3762L41.5732 68.6197L40.893 67.884L40.1747 67.1072L39.44 67.8666L38.6123 68.7223L37.803 67.8471L37.2148 67.2109L36.5018 67.7013L34.5922 69.0147L33.6165 67.3219L33.0623 66.3605L32.1639 67.0096L30.657 68.0984L31.0438 31.8766L46.3476 32.0593L45.9819 66.3118Z" stroke="#5F0B0E" stroke-width="2"></path>
<path d="M145 52.25C130.2 59.05 103.5 55.0833 92 52.25C93.6 63.85 91.3333 105.417 90 124.75C98.8 123.15 130.333 125.417 145 126.75C141.8 123.15 143.667 75.5833 145 52.25Z" fill="#D9D9D9"></path>
<path d="M147 52.75C132.2 59.55 105.5 55.5833 94 52.75C95.6 64.35 93.3333 105.917 92 125.25C100.8 123.65 132.333 125.917 147 127.25C143.8 123.65 145.667 76.0833 147 52.75Z" stroke="black" stroke-width="3" stroke-linejoin="round"></path>
<path d="M94 61.75C99.3333 62.9167 113 65.15 125 64.75C137 64.35 143.667 62.5833 145.5 61.75" stroke="black" stroke-width="3"></path>
<path d="M146 120C140.408 118.851 126.078 116.653 113.495 117.047C100.913 117.44 93.9223 119.18 92 120" stroke="black" stroke-width="3"></path>
<path d="M128.5 61.75C125.5 62.25 116.5 61.75 112 61.75C112.5 64.25 112.667 70.4167 112 73.75C115.2 72.55 124.333 73.25 128.5 73.75V61.75Z" fill="#D71920"></path>
</g>
<defs>
<clipPath id="clip0_435_18">
<rect width="156" height="156" fill="white"></rect>
</clipPath>
</defs>
</svg>