<svg width="156" height="156" viewBox="0 0 156 156" fill="none" xmlns="http://www.w3.org/2000/svg">
<g clip-path="url(#clip0_435_43)">
<path d="M119.006 33.484H20.4951V121.411H119.006V33.484Z" fill="#F2CBCD"></path>
<path d="M123.91 38.1864H28.3994V123.114H123.91V38.1864Z" stroke="black" stroke-width="3"></path>
<path d="M44.9258 37.8569L63.3965 38.0774L62.9496 79.9274L61.6564 77.4704L60.311 79.8959L59.0177 77.4389L57.3424 79.8605L55.7119 78.097L54.0441 79.8211L52.4135 78.0577L49.4227 80.1147L47.8033 77.305L44.4789 79.7069L44.9258 37.8569Z" fill="white"></path>
<path d="M60.0358 73.8465L59.7227 73.2517L58.8256 74.8689L58.3773 75.6772L57.9463 74.8584L57.1772 73.3973L56.2389 74.7537L55.2728 76.1501L54.4896 75.303L53.7713 74.5262L53.0366 75.2857L52.1035 76.2503L51.1912 75.2636L50.603 74.6275L49.89 75.1179L47.7914 76.5613L46.7134 74.6909L46.1593 73.7295L45.2609 74.3786L43.5439 75.6191L43.9589 36.7532L60.4298 36.9498L60.0358 73.8465Z" stroke="#5F0B0E" stroke-width="2"></path>
<path d="M98.0746 78.6505L77.5508 90.9635L98.0746 109.907V99.4879H132.709V88.122H98.0746V78.6505Z" fill="#E52E34"></path>
<path d="M97.0189 75.484L76.4951 87.797L97.0189 106.74V96.3214H131.653V84.9555H97.0189V75.484Z" stroke="black" stroke-width="2"></path>
<path d="M114.981 133.673L135.505 121.36L114.981 102.417V112.835H80.347V124.201H114.981V133.673Z" fill="#E52E34"></path>
<path d="M114.317 136.516L134.841 124.203L114.317 105.26V115.679H79.6835V127.044H114.317V136.516Z" stroke="black" stroke-width="2"></path>
</g>
<defs>
<clipPath id="clip0_435_43">
<rect width="156" height="156" fill="white"></rect>
</clipPath>
</defs>
</svg>