<svg width="156" height="156" viewBox="0 0 156 156" fill="none" xmlns="http://www.w3.org/2000/svg">
<g clip-path="url(#clip0_435_53)">
<path d="M121.5 22.5H28.5V43.5H121.5V22.5Z" fill="#F2CBCD"></path>
<path d="M127.5 111.5H88.5V132.5H127.5V111.5Z" fill="#F2CBCD"></path>
<path d="M119.5 27.5H80.5V37.5H119.5V27.5Z" fill="#D71920"></path>
<path d="M120 22H35V134H120V22Z" stroke="black" stroke-width="3"></path>
<path d="M50.3793 121.376C52.2979 118.047 55.5445 113.301 54.3777 109.144C54.242 108.661 54.0433 109.005 54.0371 109.322C53.9977 111.328 54.699 113.138 55.1181 115.068C55.7395 117.93 55.774 119.781 52.6747 120.902C51.1288 121.462 48.7893 121.781 47.1511 121.228C43.2992 119.928 55.2505 121.954 59.3089 122.191C60.9584 122.287 65.2297 122.993 66.3134 120.814C67.1207 119.19 66.2517 116.482 65.6471 114.964C65.3445 114.204 64.0421 111.411 62.7741 112.639C61.4526 113.919 57.4778 118.711 61.1748 119.17C65.1197 119.66 69.8293 119.03 73.6288 118.03C75.602 117.51 78.2285 116.549 79.7004 114.92C82.118 112.244 79.1884 114.485 80.2335 112.047" stroke="black" stroke-width="2" stroke-linecap="round"></path>
<path d="M99.1053 118.83C105.19 117.011 108.649 110.604 106.83 104.519C105.011 98.4333 98.6035 94.9747 92.5183 96.7937C86.4331 98.6126 82.9745 105.02 84.7935 111.105C86.6124 117.191 93.02 120.649 99.1053 118.83Z" fill="#D9D9D9"></path>
<path d="M101.676 117.393C106.967 115.811 109.975 110.24 108.393 104.948C106.811 99.6566 101.239 96.6492 95.948 98.2308C90.6564 99.8125 87.649 105.384 89.2307 110.676C90.8124 115.967 96.3842 118.975 101.676 117.393Z" stroke="black" stroke-width="3"></path>
<path d="M49.5 53.5H88.5" stroke="#616161" stroke-width="3"></path>
<path d="M49.5 75.5H88.5" stroke="#616161" stroke-width="3"></path>
<path d="M49.5 59.5H88.5" stroke="#616161" stroke-width="3"></path>
<path d="M49.5 81.5H88.5" stroke="#616161" stroke-width="3"></path>
<path d="M49.5 65.5H77.5" stroke="#616161" stroke-width="3"></path>
<path d="M49.5 87.5H77.5" stroke="#616161" stroke-width="3"></path>
</g>
<defs>
<clipPath id="clip0_435_53">
<rect width="156" height="156" fill="white"></rect>
</clipPath>
</defs>
</svg>